<svg viewBox="0 0 165 221" fill="none" xmlns="http://www.w3.org/2000/svg">
<path d="M12.56 211C12.1067 211 11.7333 210.853 11.44 210.56C11.1467 210.267 11 209.893 11 209.44V181.32C11 180.867 11.1467 180.493 11.44 180.2C11.7333 179.907 12.1067 179.76 12.56 179.76H20.04C21.9867 179.76 23.72 180.173 25.24 181C26.76 181.8 27.9467 182.933 28.8 184.4C29.68 185.84 30.12 187.507 30.12 189.4C30.12 191.213 29.68 192.827 28.8 194.24C27.9467 195.653 26.76 196.76 25.24 197.56C23.72 198.36 21.9867 198.76 20.04 198.76H14.12V209.44C14.12 209.893 13.9733 210.267 13.68 210.56C13.3867 210.853 13.0133 211 12.56 211ZM29.28 211C28.9333 211 28.6533 210.933 28.44 210.8C28.2533 210.667 28.08 210.467 27.92 210.2L20.24 197.96L23.36 197.16L30.52 208.6C30.92 209.24 30.9867 209.8 30.72 210.28C30.48 210.76 30 211 29.28 211ZM14.12 195.76H20.04C21.4 195.76 22.6 195.493 23.64 194.96C24.7067 194.4 25.5467 193.64 26.16 192.68C26.7733 191.72 27.08 190.627 27.08 189.4C27.08 188.093 26.7733 186.947 26.16 185.96C25.5467 184.947 24.7067 184.16 23.64 183.6C22.6 183.04 21.4 182.76 20.04 182.76H14.12V195.76ZM45.2466 211.2C43.0866 211.2 41.1666 210.733 39.4866 209.8C37.8332 208.84 36.5266 207.52 35.5666 205.84C34.6332 204.16 34.1666 202.24 34.1666 200.08C34.1666 197.893 34.6066 195.973 35.4866 194.32C36.3932 192.64 37.6332 191.32 39.2066 190.36C40.7799 189.4 42.5932 188.92 44.6466 188.92C46.6732 188.92 48.4332 189.387 49.9266 190.32C51.4466 191.227 52.6199 192.493 53.4466 194.12C54.2732 195.747 54.6866 197.6 54.6866 199.68C54.6866 200.107 54.5532 200.453 54.2866 200.72C54.0199 200.96 53.6732 201.08 53.2466 201.08H36.2466V198.52H53.5666L51.8466 199.76C51.8732 198.213 51.5932 196.827 51.0066 195.6C50.4199 194.373 49.5799 193.413 48.4866 192.72C47.4199 192.027 46.1399 191.68 44.6466 191.68C43.1266 191.68 41.7932 192.04 40.6466 192.76C39.4999 193.48 38.6066 194.48 37.9666 195.76C37.3532 197.013 37.0466 198.453 37.0466 200.08C37.0466 201.707 37.3932 203.147 38.0866 204.4C38.8066 205.653 39.7799 206.64 41.0066 207.36C42.2332 208.08 43.6466 208.44 45.2466 208.44C46.2066 208.44 47.1666 208.28 48.1266 207.96C49.1132 207.613 49.8999 207.187 50.4866 206.68C50.7799 206.44 51.1132 206.32 51.4866 206.32C51.8599 206.293 52.1799 206.387 52.4466 206.6C52.7932 206.92 52.9666 207.267 52.9666 207.64C52.9932 208.013 52.8466 208.333 52.5266 208.6C51.6466 209.347 50.5266 209.973 49.1666 210.48C47.8066 210.96 46.4999 211.2 45.2466 211.2ZM62.0969 211C61.6169 211 61.2302 210.867 60.9369 210.6C60.6702 210.307 60.5369 209.92 60.5369 209.44V190.68C60.5369 190.2 60.6702 189.827 60.9369 189.56C61.2302 189.267 61.6169 189.12 62.0969 189.12C62.5502 189.12 62.9102 189.267 63.1769 189.56C63.4702 189.827 63.6169 190.2 63.6169 190.68V209.44C63.6169 209.92 63.4702 210.307 63.1769 210.6C62.9102 210.867 62.5502 211 62.0969 211ZM62.0569 184.96C61.4702 184.96 60.9635 184.747 60.5369 184.32C60.1102 183.893 59.8969 183.373 59.8969 182.76C59.8969 182.093 60.1102 181.573 60.5369 181.2C60.9902 180.8 61.5102 180.6 62.0969 180.6C62.6569 180.6 63.1502 180.8 63.5769 181.2C64.0302 181.573 64.2569 182.093 64.2569 182.76C64.2569 183.373 64.0435 183.893 63.6169 184.32C63.1902 184.747 62.6702 184.96 62.0569 184.96ZM73.0194 220.36C72.5394 220.36 72.1527 220.213 71.8594 219.92C71.5927 219.653 71.4594 219.28 71.4594 218.8V199.92C71.486 197.84 71.9794 195.973 72.9394 194.32C73.926 192.64 75.246 191.32 76.8994 190.36C78.5794 189.4 80.4594 188.92 82.5394 188.92C84.6727 188.92 86.5794 189.413 88.2594 190.4C89.9394 191.36 91.2594 192.68 92.2194 194.36C93.206 196.04 93.6994 197.947 93.6994 200.08C93.6994 202.187 93.2194 204.08 92.2594 205.76C91.326 207.44 90.046 208.773 88.4194 209.76C86.7927 210.72 84.9527 211.2 82.8994 211.2C81.1127 211.2 79.486 210.827 78.0194 210.08C76.5794 209.307 75.4194 208.293 74.5394 207.04V218.8C74.5394 219.28 74.3927 219.653 74.0994 219.92C73.8327 220.213 73.4727 220.36 73.0194 220.36ZM82.5394 208.4C84.086 208.4 85.4727 208.04 86.6994 207.32C87.926 206.6 88.886 205.613 89.5794 204.36C90.2994 203.08 90.6594 201.653 90.6594 200.08C90.6594 198.48 90.2994 197.053 89.5794 195.8C88.886 194.547 87.926 193.56 86.6994 192.84C85.4727 192.093 84.086 191.72 82.5394 191.72C81.0194 191.72 79.646 192.093 78.4194 192.84C77.1927 193.56 76.2327 194.547 75.5394 195.8C74.846 197.053 74.4994 198.48 74.4994 200.08C74.4994 201.653 74.846 203.08 75.5394 204.36C76.2327 205.613 77.1927 206.6 78.4194 207.32C79.646 208.04 81.0194 208.4 82.5394 208.4ZM109.701 211.2C107.567 211.2 105.661 210.72 103.981 209.76C102.301 208.8 100.981 207.48 100.021 205.8C99.0606 204.12 98.5806 202.213 98.5806 200.08C98.5806 197.92 99.0606 196 100.021 194.32C100.981 192.64 102.301 191.32 103.981 190.36C105.661 189.4 107.567 188.92 109.701 188.92C111.834 188.92 113.727 189.4 115.381 190.36C117.061 191.32 118.381 192.64 119.341 194.32C120.301 196 120.794 197.92 120.821 200.08C120.821 202.213 120.327 204.12 119.341 205.8C118.381 207.48 117.061 208.8 115.381 209.76C113.727 210.72 111.834 211.2 109.701 211.2ZM109.701 208.4C111.247 208.4 112.634 208.04 113.861 207.32C115.087 206.6 116.047 205.613 116.741 204.36C117.434 203.107 117.781 201.68 117.781 200.08C117.781 198.48 117.434 197.053 116.741 195.8C116.047 194.52 115.087 193.52 113.861 192.8C112.634 192.08 111.247 191.72 109.701 191.72C108.154 191.72 106.767 192.08 105.541 192.8C104.314 193.52 103.341 194.52 102.621 195.8C101.927 197.053 101.581 198.48 101.581 200.08C101.581 201.68 101.927 203.107 102.621 204.36C103.341 205.613 104.314 206.6 105.541 207.32C106.767 208.04 108.154 208.4 109.701 208.4ZM128.091 197.52C128.171 195.867 128.598 194.387 129.371 193.08C130.171 191.773 131.198 190.747 132.451 190C133.731 189.253 135.144 188.88 136.691 188.88C137.918 188.88 138.864 189.053 139.531 189.4C140.198 189.747 140.451 190.253 140.291 190.92C140.184 191.32 139.998 191.587 139.731 191.72C139.491 191.853 139.184 191.907 138.811 191.88C138.464 191.853 138.064 191.827 137.611 191.8C136.118 191.667 134.784 191.827 133.611 192.28C132.464 192.707 131.544 193.373 130.851 194.28C130.184 195.187 129.851 196.267 129.851 197.52H128.091ZM128.331 211C127.851 211 127.478 210.867 127.211 210.6C126.944 210.333 126.811 209.96 126.811 209.48V190.64C126.811 190.16 126.944 189.787 127.211 189.52C127.478 189.253 127.851 189.12 128.331 189.12C128.811 189.12 129.184 189.253 129.451 189.52C129.718 189.787 129.851 190.16 129.851 190.64V209.48C129.851 209.96 129.718 210.333 129.451 210.6C129.184 210.867 128.811 211 128.331 211ZM153.691 211C152.278 211 151.011 210.667 149.891 210C148.798 209.333 147.931 208.427 147.291 207.28C146.651 206.107 146.331 204.773 146.331 203.28V183.72C146.331 183.267 146.465 182.893 146.731 182.6C147.025 182.307 147.398 182.16 147.851 182.16C148.305 182.16 148.678 182.307 148.971 182.6C149.265 182.893 149.411 183.267 149.411 183.72V203.28C149.411 204.64 149.811 205.76 150.611 206.64C151.411 207.493 152.438 207.92 153.691 207.92H154.771C155.198 207.92 155.545 208.067 155.811 208.36C156.078 208.653 156.211 209.027 156.211 209.48C156.211 209.933 156.051 210.307 155.731 210.6C155.411 210.867 155.011 211 154.531 211H153.691ZM143.731 192.6C143.331 192.6 142.998 192.48 142.731 192.24C142.465 191.973 142.331 191.653 142.331 191.28C142.331 190.88 142.465 190.56 142.731 190.32C142.998 190.053 143.331 189.92 143.731 189.92H153.931C154.331 189.92 154.665 190.053 154.931 190.32C155.198 190.56 155.331 190.88 155.331 191.28C155.331 191.653 155.198 191.973 154.931 192.24C154.665 192.48 154.331 192.6 153.931 192.6H143.731Z" fill="#474C53"/>
<ellipse cx="82.5" cy="81.5" rx="82.5" ry="81.5" fill="#474C53"/>
<ellipse cx="82" cy="81" rx="65" ry="64" fill="white"/>
<ellipse cx="82.5" cy="81" rx="46.5" ry="46" fill="#FF5C00"/>
</svg>
